<svg xmlns="http://www.w3.org/2000/svg" viewBox="0 0 645.69 66.57"><defs><style>.cls-1{fill:#76281b;}</style></defs><title>Ресурс 3</title><g id="Слой_2" data-name="Слой 2"><g id="Слой_1-2" data-name="Слой 1"><path id="_Контур_" data-name="&lt;Контур&gt;" class="cls-1" d="M639.64,47.06c-8.89,0-4.4.39-14.26.39,0-.7,2.2-1.64,3-2,1.21-.57,3.26-.43,4.76-2.15.46-.52-1.29-1.25,0-2.19a16,16,0,0,1,2.68-1c.77-.41,8.17-3.11,2.1-3.11.41-1.46,8-.66,7.76-2-.08-.44-20.08-.69-22.09-.69,0-1.59,5.32,0,6-.77.86-1-8-.76-8.94-1.3.86-1.65.92.17-.64-1.67,5.29-3.25,12.35-1.49,18.51-3.81-1.9-1.09-8.52.47-11,.56-4.39.18-14.1,1-17.06-1,1.48-1,10.31-.56,10.64-1.11.75-1.3-10.82.29-11.25-1.42.93.18,1.51-1.19.85-1.56.81.45-4.8,0-4.43-.78,1,.28,1.57.15,1.81-.38,0-.81-6.46-1.17-7.18-1.17,0-2,13.45-3.14,15.46-3.3,3.67-.31,8.51-.83,12-1,1.67-.07,4.17-.34,5.37-.39,2.2-.09,4.17.13,6-.31,1-.24-.2-.86-.67-.86,0-.46,5.16-2.17,6-2.33,2.53-.47-8,.36-6.12-.94-1-.75,3.71-.56,2.09-.61-4.49-.13-8.49-.05-12.61-.39-7.72-.64-15.08-.79-22.76-1.55C592.94,6.94,580,5.17,566.57,4.33c-15.17-1-30.8-1.66-46.11-2.23-17.06-.64-255-1.89-272.58-2-24.69-.21-48.24.2-72.1.39-15.35.12-33.11-.13-48.36,1.16-29.23,2.48-60,2-89.26,5.44-4.49.52-43.77,4.22-34.5,8.15,1.4.6,4.16.45,5.11,1,.71.39,2.83,2.92,2.7,3.69-.22,1.25,1,.6-.7,1.94-.45.35-4-.39-4.39,0-1.54,1.56,4.72.78,6,.78,0,1.83-6.13.4-7.06,1.69-.13.17,6,.8,4.78,2.32-.18.24,5.95.75,6.46.65C16.46,27.54,5.27,28,4,28c-.26.56,1.84,1,2.4,1.29-.32,2.17-8.57-.75-5.85,2.59,1.86,2.3,6.26,1,8.82,2.15-2,1.81-1.95.5-1.55,2.9.18,1.12,3.58.26.57,1.95-1.44.81,7.59.81,5.3.77-3.63,0-7.53-.67-10.45.58a12.09,12.09,0,0,0-2.08,1.37c-.35.46-.24,2.69.59,3.1,1.15.58,3.52-.12,4.48.39,2.35,1.25-.17,2.34.92,3.5.57.6,3.74,2.53,4.45,3.11.54.43,2,1.27,2.72,2,1,1,.64,1.66,2,2.42,2.34,1.35,5.92,1.51,8.48,2.81,1.94,1,2.39,1.64,4.69,2.7C32.33,63,28.6,63,34.08,63.32a4.15,4.15,0,0,1,1-.71c2.42.14,14.41,1.56,14.15,1.74.68.59,2.37,0,2.37-.58,2.93,0,5.6.95,8.65,1.17,1.33.09,2.37-.25,4.22.39.85-.62,5.94.37,7.42.38,2.89,0,11.12,1,13.35-.32-3.29,2,8.08.88,7.57.9,2.38-.1,11-.67,11.6.21,1.58-1,11.86-1,14.37-1.17,3.86-.31,7.8-.09,10.75-.39a75,75,0,0,1,14.32.38c2.71.23,9.45.24,11.43-.45,2.81-1,.12-.16,3.2.07a49.44,49.44,0,0,0,6.74-.08c8.17-.27,17.84-.28,25.21-.31,9.24,0,20.43.43,29.84.39,4.66,0,7.95-.28,12.22,0,4.51.28,9.3-.43,13.58-.39,23.41.22,267.16.25,292.89-.39,11.36-.29,26.93,0,37.86,0,3.69,0,35.45.72,35.45,0,0-.32-8-.8-8.47-.78a41.35,41.35,0,0,1-6.1.06c-2.4-.21-5.17-.27-7.54-.26-1.15,0-3.54.33-5,.2-1-.09-2.21-.61-2.92-.71-1.06-.15-1.21.9-2.19.71q.21-.52-.6-.78c.45-1.47,25.75-.41,27.47-.38,1.35,0,2.76-.34,4.4-.35,2.82,0,3.91,0,7,.14,5.94.28,12.39,0,19.36-.18,1,0,5.36-3.22,1.73-5h-4.47C634.86,55.7,640.07,47.06,639.64,47.06Z"/><path id="_Контур_2" data-name="&lt;Контур&gt;" class="cls-1" d="M615.83,64.16c-2.42,0-2.79.78.6.78q.32-.61-.6-.78C615.63,64.16,616.16,64.12,615.83,64.16Z"/><path id="_Контур_3" data-name="&lt;Контур&gt;" class="cls-1" d="M621.51,64.54c-.5-.27-3.46-.86-3.8-.24C617.06,65.5,623.36,65.52,621.51,64.54Z"/><path id="_Контур_4" data-name="&lt;Контур&gt;" class="cls-1" d="M623.29,63.77c-1.29,0-1.49-.05-1.49.78.41,0,2.25-.29,1.49-.78C623,63.77,623.39,63.83,623.29,63.77Z"/><path id="_Контур_5" data-name="&lt;Контур&gt;" class="cls-1" d="M630.48,64.16c-1-.61-4.5-.9-4.5.39,0,0,8,.93,7.06-.26a5,5,0,0,0-2.56-.13C630.27,64,631.17,64.16,630.48,64.16Z"/><path id="_Контур_6" data-name="&lt;Контур&gt;" class="cls-1" d="M1.5,28.67c.47-.48-.49.52,0,0C1.58,28.59,1.46,28.73,1.5,28.67Z"/><path id="_Контур_7" data-name="&lt;Контур&gt;" class="cls-1" d="M253.29,2.37Z"/><path id="_Контур_8" data-name="&lt;Контур&gt;" class="cls-1" d="M625.29,59.47Z"/><path id="_Контур_9" data-name="&lt;Контур&gt;" class="cls-1" d="M158.36,63Z"/><path id="_Контур_10" data-name="&lt;Контур&gt;" class="cls-1" d="M559.62,60.63Z"/></g></g></svg>